<svg width="603" height="118" viewBox="0 0 603 118" fill="none" xmlns="http://www.w3.org/2000/svg">
<g clip-path="url(#clip0_4845_5061)">
<path d="M123.329 34.3092H128.822V32.9934H123.329V34.3092ZM123.329 37.6974H128.822V36.3487H123.329V37.6974ZM123.395 26.5789H133V45H108V26.5789H117.605V20H123.395V26.5789ZM119.118 28.0592H121.914V21.4803H119.118V28.0592ZM116.421 36.3487C116.86 36.3487 117.238 36.1897 117.556 35.8717C117.874 35.5537 118.033 35.1754 118.033 34.7368C118.033 34.2763 117.874 33.8871 117.556 33.5691C117.238 33.2511 116.86 33.0921 116.421 33.0921C115.961 33.0921 115.571 33.2511 115.253 33.5691C114.935 33.8871 114.776 34.2763 114.776 34.7368C114.776 35.1754 114.935 35.5537 115.253 35.8717C115.571 36.1897 115.961 36.3487 116.421 36.3487ZM112.605 39.8355H120.072V39.5395C120.072 39.1886 119.985 38.8761 119.809 38.602C119.634 38.3279 119.404 38.136 119.118 38.0263C118.504 37.807 117.995 37.659 117.589 37.5822C117.183 37.5055 116.794 37.4671 116.421 37.4671C116.004 37.4671 115.566 37.511 115.105 37.5987C114.645 37.6864 114.14 37.8289 113.592 38.0263C113.285 38.136 113.044 38.3279 112.868 38.602C112.693 38.8761 112.605 39.1886 112.605 39.5395V39.8355ZM117.605 28.0592H109.48V43.5197H131.52V28.0592H123.395V29.5724H117.605V28.0592Z" fill="#999999"/>
</g>
<path d="M296.5 32.2281C295.018 32.2281 293.797 31.7456 292.839 30.7807C291.881 29.8158 291.402 28.5871 291.402 27.0947C291.402 25.6023 291.881 24.3801 292.839 23.4281C293.797 22.476 295.018 22 296.5 22C297.982 22 299.202 22.476 300.161 23.4281C301.119 24.3801 301.598 25.6023 301.598 27.0947C301.598 28.5871 301.119 29.8158 300.161 30.7807C299.202 31.7456 297.982 32.2281 296.5 32.2281ZM285 44V41.0667C285 40.2433 285.217 39.5228 285.652 38.9053C286.086 38.2877 286.648 37.8117 287.338 37.4772C288.974 36.7567 290.539 36.2164 292.034 35.8561C293.529 35.4959 295.018 35.3158 296.5 35.3158C297.982 35.3158 299.471 35.5023 300.966 35.8754C302.461 36.2485 304.013 36.7953 305.623 37.5158C306.339 37.8503 306.914 38.3199 307.348 38.9246C307.783 39.5292 308 40.2433 308 41.0667V44H285ZM286.725 42.2632H306.275V41.0667C306.275 40.6807 306.147 40.3012 305.892 39.9281C305.636 39.555 305.304 39.2655 304.895 39.0597C303.387 38.3135 301.962 37.7924 300.621 37.4965C299.279 37.2006 297.906 37.0526 296.5 37.0526C295.094 37.0526 293.708 37.2006 292.341 37.4965C290.974 37.7924 289.549 38.3135 288.067 39.0597C287.683 39.2655 287.364 39.555 287.108 39.9281C286.853 40.3012 286.725 40.6807 286.725 41.0667V42.2632ZM296.5 30.4912C297.446 30.4912 298.238 30.1696 298.877 29.5263C299.516 28.883 299.835 28.0725 299.835 27.0947C299.835 26.1427 299.516 25.345 298.877 24.7018C298.238 24.0585 297.446 23.7368 296.5 23.7368C295.554 23.7368 294.762 24.0585 294.123 24.7018C293.484 25.345 293.165 26.1427 293.165 27.0947C293.165 28.0725 293.484 28.883 294.123 29.5263C294.762 30.1696 295.554 30.4912 296.5 30.4912Z" fill="#999999"/>
<path d="M206.978 40.3595L202.716 36.2745L203.799 35.2614L206.978 38.268L213.066 32.3529L214.149 33.4314L206.978 40.3595ZM197 45V22.2876H201.465V20H203.156V22.2876H213.912V20H215.569V22.2876H220V45H197ZM198.522 43.5294H218.478V30.1307H198.522V43.5294ZM198.522 28.6601H218.478V23.7908H198.522V28.6601ZM198.522 28.6601V23.7908V28.6601Z" fill="#999999"/>
<path d="M27.7183 39.8355H37.2817V38.3224H27.7183V39.8355ZM27.7183 34.3092H37.2817V32.8289H27.7183V34.3092ZM23 45V20H35.825L42 26.4145V45H23ZM35.1283 27.0724V21.4803H24.425V43.5197H40.575V27.0724H35.1283ZM24.425 21.4803V27.0724V21.4803V43.5197V21.4803Z" fill="#999999"/>
<path d="M372 44V25H373.908L376.046 29.2433H380.257L378.086 25H380.947L383.086 29.2433H387.296L385.125 25H387.954L390.125 29.2433H394.336L392.164 25H397V44H372ZM373.48 30.7V42.575H395.52V30.7H373.48ZM373.48 30.7V42.575V30.7Z" fill="#999999"/>
<path d="M372 95V76H373.908L376.046 80.2433H380.257L378.086 76H380.947L383.086 80.2433H387.296L385.125 76H387.954L390.125 80.2433H394.336L392.164 76H397V95H372Z" fill="#222222"/>
<path d="M481.037 28.5758C481.28 28.5758 481.494 28.4848 481.677 28.303C481.86 28.1212 481.951 27.9091 481.951 27.6667C481.951 27.404 481.86 27.1869 481.677 27.0152C481.494 26.8434 481.28 26.7576 481.037 26.7576C480.772 26.7576 480.549 26.8485 480.366 27.0303C480.183 27.2121 480.091 27.4242 480.091 27.6667C480.091 27.9091 480.183 28.1212 480.366 28.303C480.549 28.4848 480.772 28.5758 481.037 28.5758ZM475.884 28.5758C476.128 28.5758 476.341 28.4848 476.524 28.303C476.707 28.1212 476.799 27.9091 476.799 27.6667C476.799 27.404 476.707 27.1869 476.524 27.0152C476.341 26.8434 476.128 26.7576 475.884 26.7576C475.62 26.7576 475.401 26.8485 475.229 27.0303C475.056 27.2121 474.97 27.4242 474.97 27.6667C474.97 27.9091 475.056 28.1212 475.229 28.303C475.401 28.4848 475.62 28.5758 475.884 28.5758ZM475.366 32.9394H481.494C481.453 32.3535 481.123 31.8838 480.503 31.5303C479.883 31.1768 479.187 31 478.415 31C477.642 31 476.946 31.1768 476.326 31.5303C475.706 31.8838 475.386 32.3535 475.366 32.9394ZM466.585 46C464.756 46 463.201 45.3535 461.921 44.0606C460.64 42.7677 460 41.2323 460 39.4545V31.8788H473.14V39.4545C473.14 41.2323 472.505 42.7677 471.235 44.0606C469.964 45.3535 468.415 46 466.585 46ZM466.585 44.6364C468.008 44.6364 469.228 44.1212 470.244 43.0909C471.26 42.0606 471.768 40.8586 471.768 39.4848V33.2424H461.372V39.4848C461.372 40.8586 461.88 42.0606 462.896 43.0909C463.913 44.1212 465.142 44.6364 466.585 44.6364ZM478.415 37.1212C477.764 37.1212 477.119 37.0354 476.479 36.8636C475.838 36.6919 475.264 36.4444 474.756 36.1212L474.787 34.5758C475.274 34.8788 475.828 35.1515 476.448 35.3939C477.068 35.6364 477.724 35.7576 478.415 35.7576C479.858 35.7576 481.087 35.2778 482.104 34.3182C483.12 33.3586 483.628 32.1818 483.628 30.7879V24.3636H473.171V30.303H471.799V23H485V30.7879C485 32.5455 484.36 34.0404 483.079 35.2727C481.799 36.505 480.244 37.1212 478.415 37.1212ZM464.024 37.303C464.289 37.303 464.507 37.2121 464.68 37.0303C464.853 36.8485 464.939 36.6364 464.939 36.3939C464.939 36.1313 464.853 35.9091 464.68 35.7273C464.507 35.5455 464.289 35.4545 464.024 35.4545C463.78 35.4545 463.567 35.5455 463.384 35.7273C463.201 35.9091 463.11 36.1212 463.11 36.3636C463.11 36.6263 463.201 36.8485 463.384 37.0303C463.567 37.2121 463.78 37.303 464.024 37.303ZM469.177 37.303C469.441 37.303 469.665 37.2121 469.848 37.0303C470.03 36.8485 470.122 36.6364 470.122 36.3939C470.122 36.1313 470.03 35.9091 469.848 35.7273C469.665 35.5455 469.451 35.4545 469.207 35.4545C468.943 35.4545 468.72 35.5455 468.537 35.7273C468.354 35.9091 468.262 36.1212 468.262 36.3636C468.262 36.6263 468.354 36.8485 468.537 37.0303C468.72 37.2121 468.933 37.303 469.177 37.303ZM466.646 41.8485C467.419 41.8485 468.115 41.6717 468.735 41.3182C469.355 40.9646 469.675 40.4949 469.695 39.9091H463.567C463.587 40.4949 463.908 40.9646 464.527 41.3182C465.147 41.6717 465.854 41.8485 466.646 41.8485Z" fill="#999999"/>
<path d="M466.616 97C464.787 97 463.227 96.3502 461.936 95.0506C460.645 93.751 460 92.2146 460 90.4415V82.8857H473.171V90.4415C473.171 92.2146 472.53 93.751 471.25 95.0506C469.97 96.3502 468.425 97 466.616 97ZM464.024 88.2957C464.289 88.2957 464.507 88.205 464.68 88.0237C464.853 87.8423 464.939 87.6307 464.939 87.389C464.939 87.127 464.853 86.9054 464.68 86.724C464.507 86.5427 464.289 86.452 464.024 86.452C463.78 86.452 463.567 86.5427 463.384 86.724C463.201 86.9054 463.11 87.117 463.11 87.3587C463.11 87.6207 463.201 87.8423 463.384 88.0237C463.567 88.205 463.78 88.2957 464.024 88.2957ZM466.646 92.8292C467.419 92.8292 468.115 92.6529 468.735 92.3003C469.355 91.9477 469.675 91.4792 469.695 90.8949H463.567C463.587 91.4792 463.908 91.9477 464.527 92.3003C465.147 92.6529 465.854 92.8292 466.646 92.8292ZM469.177 88.2957C469.441 88.2957 469.665 88.205 469.848 88.0237C470.03 87.8423 470.122 87.6307 470.122 87.389C470.122 87.127 470.03 86.9054 469.848 86.724C469.665 86.5427 469.451 86.452 469.207 86.452C468.943 86.452 468.72 86.5427 468.537 86.724C468.354 86.9054 468.262 87.117 468.262 87.3587C468.262 87.6207 468.354 87.8423 468.537 88.0237C468.72 88.205 468.933 88.2957 469.177 88.2957ZM478.415 88.1143C477.764 88.1143 477.124 88.0287 476.494 87.8574C475.864 87.6862 475.295 87.4393 474.787 87.117V81.3141H471.799V74H485V81.7976C485 83.5506 484.36 85.0416 483.079 86.2707C481.799 87.4998 480.244 88.1143 478.415 88.1143ZM475.884 79.5913C476.128 79.5913 476.341 79.5007 476.524 79.3193C476.707 79.138 476.799 78.9264 476.799 78.6846C476.799 78.4227 476.707 78.2061 476.524 78.0348C476.341 77.8636 476.128 77.7779 475.884 77.7779C475.62 77.7779 475.401 77.8686 475.229 78.0499C475.056 78.2313 474.97 78.4428 474.97 78.6846C474.97 78.9264 475.056 79.138 475.229 79.3193C475.401 79.5007 475.62 79.5913 475.884 79.5913ZM475.366 83.9435H481.494C481.453 83.3592 481.123 82.8907 480.503 82.5381C479.883 82.1855 479.187 82.0092 478.415 82.0092C477.866 82.0092 477.226 82.1603 476.494 82.4626C475.762 82.7648 475.386 83.2584 475.366 83.9435ZM481.037 79.5913C481.28 79.5913 481.494 79.5007 481.677 79.3193C481.86 79.138 481.951 78.9264 481.951 78.6846C481.951 78.4227 481.86 78.2061 481.677 78.0348C481.494 77.8636 481.28 77.7779 481.037 77.7779C480.772 77.7779 480.549 77.8686 480.366 78.0499C480.183 78.2313 480.091 78.4428 480.091 78.6846C480.091 78.9264 480.183 79.138 480.366 79.3193C480.549 79.5007 480.772 79.5913 481.037 79.5913Z" fill="black"/>
<path d="M206.978 93.3595L202.716 89.2745L203.799 88.2614L206.978 91.268L213.066 85.3529L214.149 86.4314L206.978 93.3595ZM197 98V75.2876H201.465V73H203.156V75.2876H213.912V73H215.569V75.2876H220V98H197ZM198.522 96.5294H218.478V83.1307H198.522V96.5294Z" fill="black"/>
<path d="M296.5 85.2281C295.018 85.2281 293.797 84.7456 292.839 83.7807C291.881 82.8158 291.402 81.5871 291.402 80.0947C291.402 78.6023 291.881 77.3801 292.839 76.4281C293.797 75.476 295.018 75 296.5 75C297.982 75 299.202 75.476 300.161 76.4281C301.119 77.3801 301.598 78.6023 301.598 80.0947C301.598 81.5871 301.119 82.8158 300.161 83.7807C299.202 84.7456 297.982 85.2281 296.5 85.2281ZM285 97V94.0667C285 93.2433 285.217 92.5228 285.652 91.9053C286.086 91.2877 286.648 90.8117 287.338 90.4772C288.974 89.7567 290.539 89.2164 292.034 88.8561C293.529 88.4959 295.018 88.3158 296.5 88.3158C297.982 88.3158 299.471 88.5023 300.966 88.8754C302.461 89.2485 304.013 89.7825 305.623 90.4772C306.339 90.8117 306.914 91.2877 307.348 91.9053C307.783 92.5228 308 93.2433 308 94.0667V97H285Z" fill="black"/>
<path d="M27.7183 92.8355H37.2817V91.3224H27.7183V92.8355ZM27.7183 87.3092H37.2817V85.8289H27.7183V87.3092ZM23 98V73H35.825L42 79.4145V98H23ZM35.1283 80.0724H40.575L35.1283 74.4803V80.0724Z" fill="black"/>
<g clip-path="url(#clip1_4845_5061)">
<path d="M123.329 87.3092H128.822V85.9934H123.329V87.3092ZM123.329 90.6974H128.822V89.3487H123.329V90.6974ZM123.395 79.5789H133V98H108V79.5789H117.605V73H123.395V79.5789ZM119.118 81.0592H121.914V74.4803H119.118V81.0592ZM116.388 89.3487C116.849 89.3487 117.238 89.1897 117.556 88.8717C117.874 88.5537 118.033 88.1754 118.033 87.7368C118.033 87.2763 117.874 86.8871 117.556 86.5691C117.238 86.2511 116.86 86.0921 116.421 86.0921C115.961 86.0921 115.571 86.2511 115.253 86.5691C114.935 86.8871 114.776 87.2763 114.776 87.7368C114.776 88.1754 114.935 88.5537 115.253 88.8717C115.571 89.1897 115.95 89.3487 116.388 89.3487ZM112.605 92.8355H120.072V92.5395C120.072 92.1886 119.985 91.8761 119.809 91.602C119.634 91.3279 119.404 91.136 119.118 91.0263C118.504 90.807 118 90.659 117.605 90.5822C117.211 90.5055 116.816 90.4671 116.421 90.4671C115.982 90.4671 115.533 90.511 115.072 90.5987C114.612 90.6864 114.118 90.8289 113.592 91.0263C113.307 91.136 113.071 91.3279 112.885 91.602C112.698 91.8761 112.605 92.1886 112.605 92.5395V92.8355Z" fill="black"/>
</g>
<path d="M562.583 30.0514V28.8014C563.156 28.5584 563.742 28.3761 564.341 28.2546C564.94 28.133 565.569 28.0723 566.229 28.0723C566.68 28.0723 567.123 28.107 567.557 28.1764C567.991 28.2459 568.417 28.3327 568.833 28.4368V29.5827C568.417 29.4264 567.995 29.3092 567.57 29.2311C567.145 29.153 566.698 29.1139 566.229 29.1139C565.569 29.1139 564.936 29.1964 564.328 29.3613C563.72 29.5263 563.139 29.7563 562.583 30.0514ZM562.583 35.7806V34.5046C563.156 34.2615 563.742 34.0836 564.341 33.9707C564.94 33.8579 565.569 33.8014 566.229 33.8014C566.68 33.8014 567.123 33.8362 567.557 33.9056C567.991 33.975 568.417 34.0618 568.833 34.166V35.3118C568.417 35.1556 567.995 35.0384 567.57 34.9603C567.145 34.8822 566.698 34.8431 566.229 34.8431C565.569 34.8431 564.936 34.9212 564.328 35.0775C563.72 35.2337 563.139 35.4681 562.583 35.7806ZM562.583 32.916V31.666C563.156 31.423 563.742 31.2407 564.341 31.1191C564.94 30.9976 565.569 30.9368 566.229 30.9368C566.68 30.9368 567.123 30.9716 567.557 31.041C567.991 31.1105 568.417 31.1973 568.833 31.3014V32.4473C568.417 32.291 567.995 32.1738 567.57 32.0957C567.145 32.0176 566.698 31.9785 566.229 31.9785C565.569 31.9785 564.936 32.061 564.328 32.2259C563.72 32.3908 563.139 32.6209 562.583 32.916ZM554.458 37.1868C555.396 37.1868 556.303 37.2954 557.18 37.5124C558.056 37.7294 558.92 38.0549 559.771 38.4889V27.3691C558.989 26.8483 558.143 26.4447 557.232 26.1582C556.32 25.8717 555.396 25.7285 554.458 25.7285C553.798 25.7285 553.152 25.811 552.518 25.9759C551.884 26.1408 551.246 26.3448 550.604 26.5879V37.89C551.142 37.6469 551.754 37.469 552.44 37.3561C553.126 37.2433 553.798 37.1868 554.458 37.1868ZM561.333 38.4889C562.201 38.0549 563.052 37.7294 563.885 37.5124C564.719 37.2954 565.604 37.1868 566.542 37.1868C567.201 37.1868 567.883 37.2389 568.586 37.3431C569.289 37.4473 569.892 37.5862 570.396 37.7598V26.5879C569.805 26.2928 569.18 26.0757 568.521 25.9368C567.861 25.798 567.201 25.7285 566.542 25.7285C565.604 25.7285 564.697 25.8717 563.82 26.1582C562.943 26.4447 562.114 26.8483 561.333 27.3691V38.4889ZM560.552 40.8327C559.667 40.173 558.703 39.6651 557.661 39.3092C556.62 38.9533 555.552 38.7754 554.458 38.7754C553.555 38.7754 552.579 38.9533 551.528 39.3092C550.478 39.6651 549.649 40.0341 549.042 40.416V25.5202C549.771 25.1035 550.621 24.7737 551.594 24.5306C552.566 24.2875 553.521 24.166 554.458 24.166C555.552 24.166 556.615 24.3136 557.648 24.6087C558.681 24.9039 559.649 25.3553 560.552 25.9629C561.437 25.3553 562.388 24.9039 563.403 24.6087C564.419 24.3136 565.465 24.166 566.542 24.166C567.479 24.166 568.434 24.2919 569.406 24.5436C570.378 24.7954 571.229 25.1209 571.958 25.5202V40.416C571.368 40.0167 570.543 39.6434 569.484 39.2962C568.425 38.949 567.444 38.7754 566.542 38.7754C565.448 38.7754 564.397 38.9577 563.39 39.3223C562.384 39.6868 561.437 40.1903 560.552 40.8327Z" fill="#999999"/>
<path d="M562.583 83.0514V81.8014C563.156 81.5584 563.742 81.3761 564.341 81.2546C564.94 81.133 565.569 81.0723 566.229 81.0723C566.68 81.0723 567.123 81.107 567.557 81.1764C567.991 81.2459 568.417 81.3327 568.833 81.4368V82.5827C568.417 82.4264 567.995 82.3092 567.57 82.2311C567.145 82.153 566.698 82.1139 566.229 82.1139C565.569 82.1139 564.936 82.1964 564.328 82.3613C563.72 82.5263 563.139 82.7563 562.583 83.0514ZM562.583 88.7806V87.5046C563.156 87.2615 563.742 87.0836 564.341 86.9707C564.94 86.8579 565.569 86.8014 566.229 86.8014C566.68 86.8014 567.123 86.8362 567.557 86.9056C567.991 86.975 568.417 87.0618 568.833 87.166V88.3118C568.417 88.1556 567.995 88.0384 567.57 87.9603C567.145 87.8822 566.698 87.8431 566.229 87.8431C565.569 87.8431 564.936 87.9212 564.328 88.0775C563.72 88.2337 563.139 88.4681 562.583 88.7806ZM562.583 85.916V84.666C563.156 84.423 563.742 84.2407 564.341 84.1191C564.94 83.9976 565.569 83.9368 566.229 83.9368C566.68 83.9368 567.123 83.9716 567.557 84.041C567.991 84.1105 568.417 84.1973 568.833 84.3014V85.4473C568.417 85.291 567.995 85.1738 567.57 85.0957C567.145 85.0176 566.698 84.9785 566.229 84.9785C565.569 84.9785 564.936 85.061 564.328 85.2259C563.72 85.3908 563.139 85.6209 562.583 85.916ZM561.333 91.4889C562.201 91.0549 563.052 90.7294 563.885 90.5124C564.719 90.2954 565.604 90.1868 566.542 90.1868C567.201 90.1868 567.883 90.2389 568.586 90.3431C569.289 90.4473 569.892 90.5862 570.396 90.7598V79.5879C569.805 79.2928 569.18 79.0757 568.521 78.9368C567.861 78.798 567.201 78.7285 566.542 78.7285C565.604 78.7285 564.697 78.8717 563.82 79.1582C562.943 79.4447 562.114 79.8483 561.333 80.3691V91.4889ZM560.552 93.8327C559.667 93.173 558.703 92.6651 557.661 92.3092C556.62 91.9533 555.552 91.7754 554.458 91.7754C553.555 91.7754 552.579 91.9533 551.528 92.3092C550.478 92.6651 549.649 93.0341 549.042 93.416V78.5202C549.771 78.1035 550.621 77.7737 551.594 77.5306C552.566 77.2875 553.521 77.166 554.458 77.166C555.552 77.166 556.615 77.3136 557.648 77.6087C558.681 77.9039 559.649 78.3553 560.552 78.9629C561.437 78.3553 562.388 77.9039 563.403 77.6087C564.419 77.3136 565.465 77.166 566.542 77.166C567.479 77.166 568.434 77.2919 569.406 77.5436C570.378 77.7954 571.229 78.1209 571.958 78.5202V93.416C571.368 93.0167 570.543 92.6434 569.484 92.2962C568.425 91.949 567.444 91.7754 566.542 91.7754C565.448 91.7754 564.397 91.9577 563.39 92.3223C562.384 92.6868 561.437 93.1903 560.552 93.8327Z" fill="#222222"/>
<defs>
<clipPath id="clip0_4845_5061">
<rect width="25" height="25" fill="white" transform="translate(108 20)"/>
</clipPath>
<clipPath id="clip1_4845_5061">
<rect width="25" height="25" fill="white" transform="translate(108 73)"/>
</clipPath>
</defs>
</svg>
