<svg width="127" height="50" viewBox="0 0 127 50" fill="none" xmlns="http://www.w3.org/2000/svg">
<g clip-path="url(#clip0_1_33627)">
<g clip-path="url(#clip1_1_33627)">
<path fill-rule="evenodd" clip-rule="evenodd" d="M10.95 17.2H16.05V25.5H24.7V10L13.5 1.5L2 10V25.5H10.95V17.2ZM9.25 23.8V15.5H17.75V23.8H23V10.8571L13.5 3.6145L3.7 10.8571V23.8H9.25Z" fill="#999999"/>
</g>
</g>
<path d="M26 22.5V3.5H27.9079L30.0461 7.74333H34.2566L32.0855 3.5H34.9474L37.0855 7.74333H41.2961L39.125 3.5H41.9539L44.125 7.74333H48.3355L46.1645 3.5H51V22.5H26ZM27.4803 9.2V21.075H49.5197V9.2H27.4803ZM27.4803 9.2V21.075V9.2Z" fill="#999999"/>
<path d="M72.0366 7.07576C72.2805 7.07576 72.4939 6.98485 72.6768 6.80303C72.8598 6.62121 72.9512 6.40909 72.9512 6.16667C72.9512 5.90404 72.8598 5.68687 72.6768 5.51515C72.4939 5.34343 72.2805 5.25758 72.0366 5.25758C71.7724 5.25758 71.5488 5.34848 71.3659 5.5303C71.1829 5.71212 71.0915 5.92424 71.0915 6.16667C71.0915 6.40909 71.1829 6.62121 71.3659 6.80303C71.5488 6.98485 71.7724 7.07576 72.0366 7.07576ZM66.8841 7.07576C67.128 7.07576 67.3415 6.98485 67.5244 6.80303C67.7073 6.62121 67.7988 6.40909 67.7988 6.16667C67.7988 5.90404 67.7073 5.68687 67.5244 5.51515C67.3415 5.34343 67.128 5.25758 66.8841 5.25758C66.6199 5.25758 66.4014 5.34848 66.2287 5.5303C66.0559 5.71212 65.9695 5.92424 65.9695 6.16667C65.9695 6.40909 66.0559 6.62121 66.2287 6.80303C66.4014 6.98485 66.6199 7.07576 66.8841 7.07576ZM66.3659 11.4394H72.4939C72.4533 10.8535 72.123 10.3838 71.503 10.0303C70.8831 9.67677 70.187 9.5 69.4146 9.5C68.6423 9.5 67.9461 9.67677 67.3262 10.0303C66.7063 10.3838 66.3862 10.8535 66.3659 11.4394ZM57.5854 24.5C55.7561 24.5 54.2012 23.8535 52.9207 22.5606C51.6402 21.2677 51 19.7323 51 17.9545V10.3788H64.1402V17.9545C64.1402 19.7323 63.5051 21.2677 62.2348 22.5606C60.9644 23.8535 59.4146 24.5 57.5854 24.5ZM57.5854 23.1364C59.0081 23.1364 60.2276 22.6212 61.2439 21.5909C62.2602 20.5606 62.7683 19.3586 62.7683 17.9848V11.7424H52.372V17.9848C52.372 19.3586 52.8801 20.5606 53.8963 21.5909C54.9126 22.6212 56.1423 23.1364 57.5854 23.1364ZM69.4146 15.6212C68.7642 15.6212 68.1189 15.5354 67.4787 15.3636C66.8384 15.1919 66.2642 14.9444 65.7561 14.6212L65.7866 13.0758C66.2744 13.3788 66.8283 13.6515 67.4482 13.8939C68.0681 14.1364 68.7236 14.2576 69.4146 14.2576C70.8577 14.2576 72.0874 13.7778 73.1037 12.8182C74.1199 11.8586 74.628 10.6818 74.628 9.28788V2.86364H64.1707V8.80303H62.7988V1.5H76V9.28788C76 11.0455 75.3598 12.5404 74.0793 13.7727C72.7988 15.005 71.2439 15.6212 69.4146 15.6212V15.6212ZM55.0244 15.803C55.2886 15.803 55.5071 15.7121 55.6799 15.5303C55.8526 15.3485 55.939 15.1364 55.939 14.8939C55.939 14.6313 55.8526 14.4091 55.6799 14.2273C55.5071 14.0455 55.2886 13.9545 55.0244 13.9545C54.7805 13.9545 54.5671 14.0455 54.3841 14.2273C54.2012 14.4091 54.1098 14.6212 54.1098 14.8636C54.1098 15.1263 54.2012 15.3485 54.3841 15.5303C54.5671 15.7121 54.7805 15.803 55.0244 15.803ZM60.1768 15.803C60.4411 15.803 60.6646 15.7121 60.8476 15.5303C61.0305 15.3485 61.122 15.1364 61.122 14.8939C61.122 14.6313 61.0305 14.4091 60.8476 14.2273C60.6646 14.0455 60.4512 13.9545 60.2073 13.9545C59.9431 13.9545 59.7195 14.0455 59.5366 14.2273C59.3537 14.4091 59.2622 14.6212 59.2622 14.8636C59.2622 15.1263 59.3537 15.3485 59.5366 15.5303C59.7195 15.7121 59.9329 15.803 60.1768 15.803ZM57.6463 20.3485C58.4187 20.3485 59.1148 20.1717 59.7348 19.8182C60.3547 19.4646 60.6748 18.9949 60.6951 18.4091H54.5671C54.5874 18.9949 54.9075 19.4646 55.5274 19.8182C56.1474 20.1717 56.8537 20.3485 57.6463 20.3485V20.3485Z" fill="#999999"/>
<g clip-path="url(#clip2_1_33627)">
<path d="M86.9779 20.8595L82.7162 16.7745L83.7985 15.7614L86.9779 18.768L93.0662 12.8529L94.1485 13.9314L86.9779 20.8595ZM77 25.5V2.78758H81.4647V0.5H83.1559V2.78758H93.9118V0.5H95.5691V2.78758H100V25.5H77ZM78.5221 24.0294H98.4779V10.6307H78.5221V24.0294ZM78.5221 9.16013H98.4779V4.29085H78.5221V9.16013ZM78.5221 9.16013V4.29085V9.16013Z" fill="#999999"/>
</g>
<path d="M113.5 12.7281C112.018 12.7281 110.798 12.2456 109.839 11.2807C108.881 10.3158 108.402 9.08714 108.402 7.59474C108.402 6.10234 108.881 4.88012 109.839 3.92807C110.798 2.97602 112.018 2.5 113.5 2.5C114.982 2.5 116.202 2.97602 117.161 3.92807C118.119 4.88012 118.598 6.10234 118.598 7.59474C118.598 9.08714 118.119 10.3158 117.161 11.2807C116.202 12.2456 114.982 12.7281 113.5 12.7281ZM102 24.5V21.5667C102 20.7433 102.217 20.0228 102.652 19.4053C103.086 18.7877 103.648 18.3117 104.338 17.9772C105.974 17.2567 107.539 16.7164 109.034 16.3561C110.529 15.9959 112.018 15.8158 113.5 15.8158C114.982 15.8158 116.471 16.0023 117.966 16.3754C119.461 16.7485 121.013 17.2953 122.623 18.0158C123.339 18.3503 123.914 18.8199 124.348 19.4246C124.783 20.0292 125 20.7433 125 21.5667V24.5H102ZM103.725 22.7632H123.275V21.5667C123.275 21.1807 123.147 20.8012 122.892 20.4281C122.636 20.055 122.304 19.7655 121.895 19.5597C120.387 18.8135 118.962 18.2924 117.621 17.9965C116.279 17.7006 114.906 17.5526 113.5 17.5526C112.094 17.5526 110.708 17.7006 109.341 17.9965C107.974 18.2924 106.549 18.8135 105.067 19.5597C104.683 19.7655 104.364 20.055 104.108 20.4281C103.853 20.8012 103.725 21.1807 103.725 21.5667V22.7632ZM113.5 10.9912C114.446 10.9912 115.238 10.6696 115.877 10.0263C116.516 9.38304 116.835 8.57252 116.835 7.59474C116.835 6.64269 116.516 5.84503 115.877 5.20175C115.238 4.55848 114.446 4.23684 113.5 4.23684C112.554 4.23684 111.762 4.55848 111.123 5.20175C110.484 5.84503 110.165 6.64269 110.165 7.59474C110.165 8.57252 110.484 9.38304 111.123 10.0263C111.762 10.6696 112.554 10.9912 113.5 10.9912Z" fill="#999999"/>
<g clip-path="url(#clip3_1_33627)">
<path fill-rule="evenodd" clip-rule="evenodd" d="M11.075 41.7H16.175V50H24.825V34.5L13.625 26L2.125 34.5V50H11.075V41.7Z" fill="black"/>
</g>
<g clip-path="url(#clip4_1_33627)">
<path d="M25.625 47V28H27.5329L29.6711 32.2433H33.8816L31.7105 28H34.5724L36.7105 32.2433H40.9211L38.75 28H41.5789L43.75 32.2433H47.9605L45.7895 28H50.625V47H25.625Z" fill="#222222"/>
</g>
<g clip-path="url(#clip5_1_33627)">
<path d="M71.6616 31.5758C71.9055 31.5758 72.1189 31.4848 72.3018 31.303C72.4848 31.1212 72.5762 30.9091 72.5762 30.6667C72.5762 30.404 72.4848 30.1869 72.3018 30.0152C72.1189 29.8434 71.9055 29.7576 71.6616 29.7576C71.3974 29.7576 71.1738 29.8485 70.9909 30.0303C70.8079 30.2121 70.7165 30.4242 70.7165 30.6667C70.7165 30.9091 70.8079 31.1212 70.9909 31.303C71.1738 31.4848 71.3974 31.5758 71.6616 31.5758ZM66.5091 31.5758C66.753 31.5758 66.9665 31.4848 67.1494 31.303C67.3323 31.1212 67.4238 30.9091 67.4238 30.6667C67.4238 30.404 67.3323 30.1869 67.1494 30.0152C66.9665 29.8434 66.753 29.7576 66.5091 29.7576C66.2449 29.7576 66.0264 29.8485 65.8537 30.0303C65.6809 30.2121 65.5945 30.4242 65.5945 30.6667C65.5945 30.9091 65.6809 31.1212 65.8537 31.303C66.0264 31.4848 66.2449 31.5758 66.5091 31.5758ZM65.9909 35.9394H72.1189C72.0783 35.3535 71.748 34.8838 71.128 34.5303C70.5081 34.1768 69.812 34 69.0396 34C68.2673 34 67.5711 34.1768 66.9512 34.5303C66.3313 34.8838 66.0112 35.3535 65.9909 35.9394ZM57.2104 49C55.3811 49 53.8262 48.3535 52.5457 47.0606C51.2652 45.7677 50.625 44.2323 50.625 42.4545V34.8788H63.7652V42.4545C63.7652 44.2323 63.1301 45.7677 61.8598 47.0606C60.5894 48.3535 59.0396 49 57.2104 49ZM57.2104 47.6364C58.6331 47.6364 59.8526 47.1212 60.8689 46.0909C61.8852 45.0606 62.3933 43.8586 62.3933 42.4848V36.2424H51.997V42.4848C51.997 43.8586 52.5051 45.0606 53.5213 46.0909C54.5376 47.1212 55.7673 47.6364 57.2104 47.6364ZM69.0396 40.1212C68.3892 40.1212 67.7439 40.0354 67.1037 39.8636C66.4634 39.6919 65.8892 39.4444 65.3811 39.1212L65.4116 37.5758C65.8994 37.8788 66.4533 38.1515 67.0732 38.3939C67.6931 38.6364 68.3486 38.7576 69.0396 38.7576C70.4827 38.7576 71.7124 38.2778 72.7287 37.3182C73.7449 36.3586 74.253 35.1818 74.253 33.7879V27.3636H63.7957V33.303H62.4238V26H75.625V33.7879C75.625 35.5455 74.9848 37.0404 73.7043 38.2727C72.4238 39.505 70.8689 40.1212 69.0396 40.1212V40.1212ZM54.6494 40.303C54.9136 40.303 55.1321 40.2121 55.3049 40.0303C55.4776 39.8485 55.564 39.6364 55.564 39.3939C55.564 39.1313 55.4776 38.9091 55.3049 38.7273C55.1321 38.5455 54.9136 38.4545 54.6494 38.4545C54.4055 38.4545 54.1921 38.5455 54.0091 38.7273C53.8262 38.9091 53.7348 39.1212 53.7348 39.3636C53.7348 39.6263 53.8262 39.8485 54.0091 40.0303C54.1921 40.2121 54.4055 40.303 54.6494 40.303ZM59.8018 40.303C60.0661 40.303 60.2896 40.2121 60.4726 40.0303C60.6555 39.8485 60.747 39.6364 60.747 39.3939C60.747 39.1313 60.6555 38.9091 60.4726 38.7273C60.2896 38.5455 60.0762 38.4545 59.8323 38.4545C59.5681 38.4545 59.3445 38.5455 59.1616 38.7273C58.9787 38.9091 58.8872 39.1212 58.8872 39.3636C58.8872 39.6263 58.9787 39.8485 59.1616 40.0303C59.3445 40.2121 59.5579 40.303 59.8018 40.303ZM57.2713 44.8485C58.0437 44.8485 58.7398 44.6717 59.3598 44.3182C59.9797 43.9646 60.2998 43.4949 60.3201 42.9091H54.1921C54.2124 43.4949 54.5325 43.9646 55.1524 44.3182C55.7724 44.6717 56.4787 44.8485 57.2713 44.8485V44.8485Z" fill="#999999"/>
<g clip-path="url(#clip6_1_33627)">
<path d="M56.7409 49C54.9116 49 53.3516 48.3502 52.061 47.0506C50.7703 45.751 50.125 44.2146 50.125 42.4415V34.8857H63.2957V42.4415C63.2957 44.2146 62.6555 45.751 61.375 47.0506C60.0945 48.3502 58.5498 49 56.7409 49ZM54.1494 40.2957C54.4136 40.2957 54.6321 40.205 54.8049 40.0237C54.9776 39.8423 55.064 39.6308 55.064 39.389C55.064 39.127 54.9776 38.9054 54.8049 38.724C54.6321 38.5427 54.4136 38.452 54.1494 38.452C53.9055 38.452 53.6921 38.5427 53.5091 38.724C53.3262 38.9054 53.2348 39.117 53.2348 39.3587C53.2348 39.6207 53.3262 39.8423 53.5091 40.0237C53.6921 40.205 53.9055 40.2957 54.1494 40.2957ZM56.7713 44.8292C57.5437 44.8292 58.2398 44.6529 58.8598 44.3003C59.4797 43.9477 59.7998 43.4792 59.8201 42.8949H53.6921C53.7124 43.4792 54.0325 43.9477 54.6524 44.3003C55.2724 44.6529 55.9787 44.8292 56.7713 44.8292ZM59.3018 40.2957C59.5661 40.2957 59.7896 40.205 59.9726 40.0237C60.1555 39.8423 60.247 39.6308 60.247 39.389C60.247 39.127 60.1555 38.9054 59.9726 38.724C59.7896 38.5427 59.5762 38.452 59.3323 38.452C59.0681 38.452 58.8445 38.5427 58.6616 38.724C58.4787 38.9054 58.3872 39.117 58.3872 39.3587C58.3872 39.6207 58.4787 39.8423 58.6616 40.0237C58.8445 40.205 59.0579 40.2957 59.3018 40.2957ZM68.5396 40.1143C67.8892 40.1143 67.249 40.0287 66.6189 39.8574C65.9888 39.6862 65.4197 39.4393 64.9116 39.117V33.3141H61.9238V26H75.125V33.7976C75.125 35.5506 74.4848 37.0416 73.2043 38.2707C71.9238 39.4998 70.3689 40.1143 68.5396 40.1143V40.1143ZM66.0091 31.5913C66.253 31.5913 66.4665 31.5007 66.6494 31.3193C66.8323 31.138 66.9238 30.9264 66.9238 30.6846C66.9238 30.4227 66.8323 30.2061 66.6494 30.0348C66.4665 29.8636 66.253 29.7779 66.0091 29.7779C65.7449 29.7779 65.5264 29.8686 65.3537 30.0499C65.1809 30.2313 65.0945 30.4428 65.0945 30.6846C65.0945 30.9264 65.1809 31.138 65.3537 31.3193C65.5264 31.5007 65.7449 31.5913 66.0091 31.5913ZM65.4909 35.9435H71.6189C71.5783 35.3592 71.248 34.8907 70.628 34.5381C70.0081 34.1855 69.312 34.0092 68.5396 34.0092C67.9909 34.0092 67.3506 34.1603 66.6189 34.4625C65.8872 34.7648 65.5112 35.2584 65.4909 35.9435V35.9435ZM71.1616 31.5913C71.4055 31.5913 71.6189 31.5007 71.8018 31.3193C71.9848 31.138 72.0762 30.9264 72.0762 30.6846C72.0762 30.4227 71.9848 30.2061 71.8018 30.0348C71.6189 29.8636 71.4055 29.7779 71.1616 29.7779C70.8974 29.7779 70.6738 29.8686 70.4909 30.0499C70.3079 30.2313 70.2165 30.4428 70.2165 30.6846C70.2165 30.9264 70.3079 31.138 70.4909 31.3193C70.6738 31.5007 70.8974 31.5913 71.1616 31.5913V31.5913Z" fill="black"/>
</g>
</g>
<path d="M87.1029 45.3595L82.8412 41.2745L83.9235 40.2614L87.1029 43.268L93.1912 37.3529L94.2735 38.4314L87.1029 45.3595ZM77.125 50V27.2876H81.5897V25H83.2809V27.2876H94.0368V25H95.6941V27.2876H100.125V50H77.125ZM78.6471 48.5294H98.6029V35.1307H78.6471V48.5294ZM78.6471 33.6601H98.6029V28.7908H78.6471V33.6601ZM78.6471 33.6601V28.7908V33.6601Z" fill="#999999"/>
<path d="M86.6029 45.3595L82.3412 41.2745L83.4235 40.2614L86.6029 43.268L92.6912 37.3529L93.7735 38.4314L86.6029 45.3595ZM76.625 50V27.2876H81.0897V25H82.7809V27.2876H93.5368V25H95.1941V27.2876H99.625V50H76.625ZM78.1471 48.5294H98.1029V35.1307H78.1471V48.5294Z" fill="black"/>
<path d="M113.625 37.2281C112.143 37.2281 110.923 36.7456 109.964 35.7807C109.006 34.8158 108.527 33.5871 108.527 32.0947C108.527 30.6023 109.006 29.3801 109.964 28.4281C110.923 27.476 112.143 27 113.625 27C115.107 27 116.327 27.476 117.286 28.4281C118.244 29.3801 118.723 30.6023 118.723 32.0947C118.723 33.5871 118.244 34.8158 117.286 35.7807C116.327 36.7456 115.107 37.2281 113.625 37.2281ZM102.125 49V46.0667C102.125 45.2433 102.342 44.5228 102.777 43.9053C103.211 43.2877 103.773 42.8117 104.463 42.4772C106.099 41.7567 107.664 41.2164 109.159 40.8561C110.654 40.4959 112.143 40.3158 113.625 40.3158C115.107 40.3158 116.596 40.5023 118.091 40.8754C119.586 41.2485 121.138 41.7953 122.748 42.5158C123.464 42.8503 124.039 43.3199 124.473 43.9246C124.908 44.5292 125.125 45.2433 125.125 46.0667V49H102.125ZM103.85 47.2632H123.4V46.0667C123.4 45.6807 123.272 45.3012 123.017 44.9281C122.761 44.555 122.429 44.2655 122.02 44.0597C120.512 43.3135 119.087 42.7924 117.746 42.4965C116.404 42.2006 115.031 42.0526 113.625 42.0526C112.219 42.0526 110.833 42.2006 109.466 42.4965C108.099 42.7924 106.674 43.3135 105.192 44.0597C104.808 44.2655 104.489 44.555 104.233 44.9281C103.978 45.3012 103.85 45.6807 103.85 46.0667V47.2632ZM113.625 35.4912C114.571 35.4912 115.363 35.1696 116.002 34.5263C116.641 33.883 116.96 33.0725 116.96 32.0947C116.96 31.1427 116.641 30.345 116.002 29.7018C115.363 29.0585 114.571 28.7368 113.625 28.7368C112.679 28.7368 111.887 29.0585 111.248 29.7018C110.609 30.345 110.29 31.1427 110.29 32.0947C110.29 33.0725 110.609 33.883 111.248 34.5263C111.887 35.1696 112.679 35.4912 113.625 35.4912Z" fill="#999999"/>
<path d="M113.875 37.2281C112.393 37.2281 111.173 36.7456 110.214 35.7807C109.256 34.8158 108.777 33.5871 108.777 32.0947C108.777 30.6023 109.256 29.3801 110.214 28.4281C111.173 27.476 112.393 27 113.875 27C115.357 27 116.577 27.476 117.536 28.4281C118.494 29.3801 118.973 30.6023 118.973 32.0947C118.973 33.5871 118.494 34.8158 117.536 35.7807C116.577 36.7456 115.357 37.2281 113.875 37.2281ZM102.375 49V46.0667C102.375 45.2433 102.592 44.5228 103.027 43.9053C103.461 43.2877 104.023 42.8117 104.713 42.4772C106.349 41.7567 107.914 41.2164 109.409 40.8561C110.904 40.4959 112.393 40.3158 113.875 40.3158C115.357 40.3158 116.846 40.5023 118.341 40.8754C119.836 41.2485 121.388 41.7825 122.998 42.4772C123.714 42.8117 124.289 43.2877 124.723 43.9053C125.158 44.5228 125.375 45.2433 125.375 46.0667V49H102.375Z" fill="black"/>
<defs>
<clipPath id="clip0_1_33627">
<rect width="25" height="25" fill="white" transform="translate(1 0.5)"/>
</clipPath>
<clipPath id="clip1_1_33627">
<rect width="25" height="25" fill="white" transform="translate(1 0.5)"/>
</clipPath>
<clipPath id="clip2_1_33627">
<rect width="25" height="25" fill="white" transform="translate(76 0.5)"/>
</clipPath>
<clipPath id="clip3_1_33627">
<rect width="25" height="25" fill="white" transform="translate(0.625 25)"/>
</clipPath>
<clipPath id="clip4_1_33627">
<rect width="25" height="25" fill="white" transform="translate(25.625 25)"/>
</clipPath>
<clipPath id="clip5_1_33627">
<rect width="25" height="25" fill="white" transform="translate(50.625 25)"/>
</clipPath>
<clipPath id="clip6_1_33627">
<rect width="25" height="25" fill="white" transform="translate(50.125 25)"/>
</clipPath>
</defs>
</svg>
